<svg width="19" height="20" viewBox="0 0 19 20" fill="none" xmlns="http://www.w3.org/2000/svg">
<path fill-rule="evenodd" clip-rule="evenodd" d="M0.333313 10C0.333313 6.57309 0.333313 4.85962 1.07017 3.58334C1.5529 2.74724 2.24721 2.05293 3.08331 1.5702C4.35959 0.833344 6.07305 0.833344 9.49998 0.833344C12.9269 0.833344 14.6404 0.833344 15.9166 1.5702C16.7528 2.05293 17.4471 2.74724 17.9298 3.58334C18.6666 4.85962 18.6666 6.57309 18.6666 10C18.6666 13.4269 18.6666 15.1404 17.9298 16.4167C17.4471 17.2528 16.7528 17.9471 15.9166 18.4298C14.6404 19.1667 12.9269 19.1667 9.49998 19.1667C6.07305 19.1667 4.35959 19.1667 3.08331 18.4298C2.24721 17.9471 1.5529 17.2528 1.07017 16.4167C0.333313 15.1404 0.333313 13.4269 0.333313 10ZM9.49998 4.77501C9.85436 4.77501 10.1416 5.06229 10.1416 5.41668V9.35834H14.0833C14.4377 9.35834 14.725 9.64563 14.725 10C14.725 10.3544 14.4377 10.6417 14.0833 10.6417H10.1416V14.5833C10.1416 14.9377 9.85436 15.225 9.49998 15.225C9.1456 15.225 8.85831 14.9377 8.85831 14.5833V10.6417H4.91665C4.56226 10.6417 4.27498 10.3544 4.27498 10C4.27498 9.64563 4.56226 9.35834 4.91665 9.35834H8.85831V5.41668C8.85831 5.06229 9.1456 4.77501 9.49998 4.77501Z" fill="#FD6442"/>
</svg>
