<svg width="14" height="18" viewBox="0 0 14 18" fill="none" xmlns="http://www.w3.org/2000/svg">
<path d="M8.46237 1.73284C9.62878 1.09189 10.4666 2.27031 10.7361 3.30184C10.7477 3.34422 10.7467 3.38895 10.7332 3.43009C10.7197 3.47124 10.6944 3.50684 10.6605 3.53218L8.60694 5.17128C8.5878 5.18658 8.57233 5.20611 8.56169 5.22837C8.55106 5.25063 8.54553 5.27506 8.54553 5.2998C8.54553 5.32455 8.55106 5.34897 8.56169 5.37123C8.57233 5.3935 8.5878 5.41302 8.60694 5.42833C10.666 7.06631 12.0821 9.08375 12.8553 11.4806C13.6735 14.0144 13.3843 16.438 10.4042 16.9621C7.58839 17.4562 -0.454971 18.2941 0.39602 13.063C0.908587 9.90052 2.44957 7.35674 5.01898 5.43166C5.10879 5.36267 5.11098 5.29034 5.02556 5.21468C4.56556 4.80963 4.07928 4.43129 3.56671 4.07966C2.54815 3.38195 2.97199 3.00473 3.43199 2.20688C3.89198 1.40569 4.52394 1.25324 5.32783 1.74953C5.44831 1.8252 5.50527 1.79071 5.49869 1.64605C5.42969 0.317408 8.22908 0.374159 8.25537 1.61266C8.25564 1.63673 8.26212 1.66025 8.2742 1.68097C8.28627 1.70168 8.30353 1.7189 8.32431 1.73097C8.3451 1.74304 8.36872 1.74955 8.3929 1.74987C8.41707 1.7502 8.44099 1.74434 8.46237 1.73284ZM6.29053 9.91164C6.23358 10.7729 5.79769 11.1424 4.98284 11.02C4.86358 11.0026 4.74182 11.025 4.63598 11.0838C4.53014 11.1426 4.44598 11.2346 4.39623 11.3459C4.34649 11.4572 4.33386 11.5816 4.36026 11.7005C4.38666 11.8194 4.45065 11.9262 4.54255 12.0047L5.34755 12.6958C5.38991 12.7317 5.41771 12.7822 5.4256 12.8377C5.43348 12.8931 5.4209 12.9496 5.39026 12.9962C5.07484 13.4792 5.06497 13.9721 5.36068 14.4751C5.37545 14.501 5.3955 14.5234 5.41952 14.5409C5.44355 14.5584 5.47101 14.5705 5.50014 14.5765C5.52926 14.5825 5.55939 14.5822 5.58858 14.5756C5.61776 14.5691 5.64534 14.5564 5.66954 14.5385L6.52383 13.9076C6.56367 13.8776 6.61006 13.8578 6.65919 13.8496C6.70832 13.8415 6.86266 13.8341 6.91026 13.8496C7.41665 14 7.46242 14.1568 7.7428 14.415C7.82234 14.4894 7.92498 14.5332 8.03294 14.5387C8.14091 14.5443 8.2474 14.5114 8.33398 14.4456C8.42056 14.3799 8.48178 14.2854 8.50703 14.1786C8.53227 14.0718 8.51996 13.9594 8.47223 13.8608C8.08452 13.053 7.96351 12.7272 8.66665 12.3333C8.75576 12.2843 9.10657 11.9334 9.15179 11.8413C9.19701 11.7491 9.21318 11.6451 9.19809 11.5433C9.18301 11.4415 9.1374 11.3468 9.06748 11.2723C8.99756 11.1978 8.90675 11.147 8.80738 11.1268L7.75925 10.9098C7.7289 10.9037 7.70048 10.8901 7.67644 10.8704C7.6524 10.8506 7.63344 10.8252 7.62123 10.7963L7.1711 9.75474C7.12982 9.65874 7.058 9.57961 6.96714 9.53006C6.87629 9.48051 6.77169 9.46341 6.67012 9.48151C6.56856 9.4996 6.4759 9.55185 6.40707 9.62985C6.33823 9.70786 6.2972 9.80709 6.29053 9.91164Z" fill="#FD6442"/>
</svg>
