<svg width="12" height="13" viewBox="0 0 12 13" fill="none" xmlns="http://www.w3.org/2000/svg">
<path d="M11.8334 6.5C11.8334 8.0471 11.2188 9.53082 10.1248 10.6248C9.03085 11.7187 7.54712 12.3333 6.00002 12.3333C4.45292 12.3333 2.96919 11.7187 1.87523 10.6248C0.781268 9.53082 0.166687 8.0471 0.166687 6.5C0.166687 4.95291 0.781268 3.46917 1.87523 2.3752C2.96919 1.28124 4.45292 0.666672 6.00002 0.666672C7.54712 0.666672 9.03085 1.28124 10.1248 2.3752C11.2188 3.46917 11.8334 4.95291 11.8334 6.5ZM7.19707 4.09107C7.19707 3.87286 7.11039 3.66358 6.9561 3.50928C6.8018 3.35499 6.59254 3.26831 6.37434 3.26831C6.15613 3.26831 5.94686 3.35499 5.79256 3.50928C5.63827 3.66358 5.55159 3.87286 5.55159 4.09107C5.55159 4.30927 5.63827 4.51854 5.79256 4.67283C5.94686 4.82712 6.15613 4.9138 6.37434 4.9138C6.59254 4.9138 6.8018 4.82712 6.9561 4.67283C7.11039 4.51854 7.19707 4.30927 7.19707 4.09107ZM6.49292 8.69769L7.0933 5.61796C7.09809 5.5919 7.09725 5.56513 7.09081 5.53942C7.08438 5.51372 7.07251 5.48969 7.056 5.46896C7.03949 5.44824 7.01873 5.43131 6.99512 5.41929C6.97151 5.40727 6.94559 5.40045 6.91912 5.39929L4.92527 5.32888C4.87553 5.32764 4.82705 5.34464 4.78898 5.37667C4.75091 5.40871 4.72587 5.45356 4.71858 5.50278C4.71128 5.552 4.72225 5.60219 4.74939 5.64388C4.77654 5.68558 4.81801 5.7159 4.86597 5.72914C5.35023 5.85761 5.51206 6.1924 5.35146 6.73349C5.11427 7.53153 5.01544 8.34192 5.05497 9.16466C5.05823 9.22221 5.07638 9.2778 5.10759 9.32592C5.13881 9.37404 5.182 9.41301 5.23286 9.43891C5.97902 9.8194 6.71158 9.78727 7.43055 9.34255C7.46122 9.32356 7.48507 9.29534 7.49868 9.26195C7.5123 9.22856 7.51498 9.19171 7.50633 9.1567C7.49768 9.12169 7.47815 9.09034 7.45055 9.06712C7.42295 9.04391 7.3887 9.03006 7.35273 9.02754L6.70046 8.97194C6.6684 8.96945 6.63724 8.96014 6.609 8.94464C6.58075 8.92913 6.55604 8.90776 6.53648 8.88191C6.51691 8.85606 6.50293 8.82631 6.49543 8.79458C6.48793 8.76284 6.48707 8.72984 6.49292 8.69769Z" fill="#747474"/>
</svg>
