<svg width="18" height="18" viewBox="0 0 18 18" fill="none" xmlns="http://www.w3.org/2000/svg">
<path d="M7.93368 1.06522C8.60785 0.469812 10.6228 0.371833 10.363 1.97716C10.3404 2.11534 10.3956 2.20578 10.5287 2.24849C12.4445 2.85143 13.789 4.02591 14.5624 5.77193C15.0671 6.91752 15.0144 8.28921 15.1085 9.59684C15.113 9.65573 15.1337 9.71225 15.1682 9.76013C15.2028 9.80801 15.2499 9.8454 15.3044 9.86816C15.9786 10.1546 16.7958 10.3053 17.131 10.9798C17.9408 12.6002 16.1518 13.8061 14.7357 13.889C10.8865 14.1126 7.04105 14.0913 3.1994 13.825C0.393487 13.6328 -0.514198 10.7424 2.72861 9.85686C2.78607 9.84137 2.83694 9.80766 2.87362 9.76077C2.91029 9.71389 2.93077 9.65636 2.93198 9.59684C2.95835 8.79417 2.88679 7.94252 3.00731 7.23406C3.4191 4.78461 4.82772 3.16044 7.23314 2.36154C7.29205 2.34141 7.34565 2.30826 7.38999 2.26455C7.43433 2.22084 7.46826 2.16769 7.48925 2.10906C7.64367 1.66062 7.55704 1.39683 7.93368 1.06522ZM10.088 4.48314C10.088 4.22229 9.98445 3.97212 9.8001 3.78767C9.61575 3.60322 9.36571 3.49959 9.105 3.49959C8.84429 3.49959 8.59426 3.60322 8.40991 3.78767C8.22556 3.97212 8.12199 4.22229 8.12199 4.48314C8.12199 4.6123 8.14742 4.7402 8.19682 4.85953C8.24622 4.97886 8.31863 5.08729 8.40991 5.17862C8.5012 5.26995 8.60956 5.34239 8.72882 5.39182C8.84809 5.44125 8.97591 5.46669 9.105 5.46669C9.23409 5.46669 9.36191 5.44125 9.48117 5.39182C9.60043 5.34239 9.70882 5.26995 9.8001 5.17862C9.89138 5.08729 9.96378 4.97886 10.0132 4.85953C10.0626 4.7402 10.088 4.6123 10.088 4.48314Z" fill="#FD6442"/>
<path d="M10.2418 14.801C10.3917 14.801 10.5354 14.8605 10.6413 14.9665C10.7473 15.0725 10.8068 15.2163 10.8068 15.3662V15.7016C10.8068 16.1344 10.6024 16.5494 10.2387 16.8554C9.87492 17.1614 9.38156 17.3333 8.86713 17.3333H8.70141C8.18698 17.3333 7.69362 17.1614 7.32986 16.8554C6.96611 16.5494 6.76177 16.1344 6.76177 15.7016V15.3662C6.76177 15.2163 6.82128 15.0725 6.92723 14.9665C7.03318 14.8605 7.17688 14.801 7.32671 14.801H10.2418Z" fill="#FD6442"/>
</svg>
